<svg xmlns="http://www.w3.org/2000/svg" xmlns:xlink="http://www.w3.org/1999/xlink" style="margin: auto; background: rgb(250, 250, 250); display: block;" width="200px" height="200px" viewBox="0 0 100 100" preserveAspectRatio="xMidYMid">
<g transform="rotate(0 50 50)">
  <rect x="47" y="24" rx="3" ry="6" width="6" height="12" fill="#ed1a23">
    <animate attributeName="opacity" values="1;0" keyTimes="0;1" dur="1.333333333333333s" begin="-1.2222222222222219s" repeatCount="indefinite"></animate>
  </rect>
</g><g transform="rotate(30 50 50)">
  <rect x="47" y="24" rx="3" ry="6" width="6" height="12" fill="#ed1a23">
    <animate attributeName="opacity" values="1;0" keyTimes="0;1" dur="1.333333333333333s" begin="-1.111111111111111s" repeatCount="indefinite"></animate>
  </rect>
</g><g transform="rotate(60 50 50)">
  <rect x="47" y="24" rx="3" ry="6" width="6" height="12" fill="#ed1a23">
    <animate attributeName="opacity" values="1;0" keyTimes="0;1" dur="1.333333333333333s" begin="-0.9999999999999998s" repeatCount="indefinite"></animate>
  </rect>
</g><g transform="rotate(90 50 50)">
  <rect x="47" y="24" rx="3" ry="6" width="6" height="12" fill="#ed1a23">
    <animate attributeName="opacity" values="1;0" keyTimes="0;1" dur="1.333333333333333s" begin="-0.8888888888888887s" repeatCount="indefinite"></animate>
  </rect>
</g><g transform="rotate(120 50 50)">
  <rect x="47" y="24" rx="3" ry="6" width="6" height="12" fill="#ed1a23">
    <animate attributeName="opacity" values="1;0" keyTimes="0;1" dur="1.333333333333333s" begin="-0.7777777777777777s" repeatCount="indefinite"></animate>
  </rect>
</g><g transform="rotate(150 50 50)">
  <rect x="47" y="24" rx="3" ry="6" width="6" height="12" fill="#ed1a23">
    <animate attributeName="opacity" values="1;0" keyTimes="0;1" dur="1.333333333333333s" begin="-0.6666666666666665s" repeatCount="indefinite"></animate>
  </rect>
</g><g transform="rotate(180 50 50)">
  <rect x="47" y="24" rx="3" ry="6" width="6" height="12" fill="#ed1a23">
    <animate attributeName="opacity" values="1;0" keyTimes="0;1" dur="1.333333333333333s" begin="-0.5555555555555555s" repeatCount="indefinite"></animate>
  </rect>
</g><g transform="rotate(210 50 50)">
  <rect x="47" y="24" rx="3" ry="6" width="6" height="12" fill="#ed1a23">
    <animate attributeName="opacity" values="1;0" keyTimes="0;1" dur="1.333333333333333s" begin="-0.44444444444444436s" repeatCount="indefinite"></animate>
  </rect>
</g><g transform="rotate(240 50 50)">
  <rect x="47" y="24" rx="3" ry="6" width="6" height="12" fill="#ed1a23">
    <animate attributeName="opacity" values="1;0" keyTimes="0;1" dur="1.333333333333333s" begin="-0.33333333333333326s" repeatCount="indefinite"></animate>
  </rect>
</g><g transform="rotate(270 50 50)">
  <rect x="47" y="24" rx="3" ry="6" width="6" height="12" fill="#ed1a23">
    <animate attributeName="opacity" values="1;0" keyTimes="0;1" dur="1.333333333333333s" begin="-0.22222222222222218s" repeatCount="indefinite"></animate>
  </rect>
</g><g transform="rotate(300 50 50)">
  <rect x="47" y="24" rx="3" ry="6" width="6" height="12" fill="#ed1a23">
    <animate attributeName="opacity" values="1;0" keyTimes="0;1" dur="1.333333333333333s" begin="-0.11111111111111109s" repeatCount="indefinite"></animate>
  </rect>
</g><g transform="rotate(330 50 50)">
  <rect x="47" y="24" rx="3" ry="6" width="6" height="12" fill="#ed1a23">
    <animate attributeName="opacity" values="1;0" keyTimes="0;1" dur="1.333333333333333s" begin="0s" repeatCount="indefinite"></animate>
  </rect>
</g>
</svg>